<mxfile host="app.diagrams.net" modified="2023-11-05T23:40:48.961Z" agent="Mozilla/5.0 (Windows NT 10.0; Win64; x64) AppleWebKit/537.36 (KHTML, like Gecko) Chrome/119.0.0.0 Safari/537.36" etag="1r86YmvbCRLrTgBeMzrb" version="21.4.0" type="github">
  <diagram id="C5RBs43oDa-KdzZeNtuy" name="Page-1">
    <mxGraphModel dx="2049" dy="1066" grid="1" gridSize="10" guides="1" tooltips="1" connect="1" arrows="1" fold="1" page="1" pageScale="1" pageWidth="827" pageHeight="1169" math="0" shadow="0">
      <root>
        <mxCell id="WIyWlLk6GJQsqaUBKTNV-0" />
        <mxCell id="WIyWlLk6GJQsqaUBKTNV-1" parent="WIyWlLk6GJQsqaUBKTNV-0" />
        <mxCell id="D8vA_F0jj49hH-3VTIe_-32" style="edgeStyle=orthogonalEdgeStyle;rounded=0;orthogonalLoop=1;jettySize=auto;html=1;entryX=0.5;entryY=0;entryDx=0;entryDy=0;" edge="1" parent="WIyWlLk6GJQsqaUBKTNV-1" source="D8vA_F0jj49hH-3VTIe_-3" target="D8vA_F0jj49hH-3VTIe_-4">
          <mxGeometry relative="1" as="geometry" />
        </mxCell>
        <mxCell id="D8vA_F0jj49hH-3VTIe_-3" value="&lt;font style=&quot;font-size: 16px;&quot;&gt;Начало&lt;/font&gt;" style="rounded=1;whiteSpace=wrap;html=1;" vertex="1" parent="WIyWlLk6GJQsqaUBKTNV-1">
          <mxGeometry x="275" y="30" width="135" height="20" as="geometry" />
        </mxCell>
        <mxCell id="D8vA_F0jj49hH-3VTIe_-33" style="edgeStyle=orthogonalEdgeStyle;rounded=0;orthogonalLoop=1;jettySize=auto;html=1;entryX=0.5;entryY=0;entryDx=0;entryDy=0;" edge="1" parent="WIyWlLk6GJQsqaUBKTNV-1" source="D8vA_F0jj49hH-3VTIe_-4" target="D8vA_F0jj49hH-3VTIe_-5">
          <mxGeometry relative="1" as="geometry" />
        </mxCell>
        <mxCell id="D8vA_F0jj49hH-3VTIe_-4" value="Ввод значения&lt;br&gt;N" style="shape=parallelogram;perimeter=parallelogramPerimeter;whiteSpace=wrap;html=1;fixedSize=1;" vertex="1" parent="WIyWlLk6GJQsqaUBKTNV-1">
          <mxGeometry x="282.5" y="80" width="120" height="60" as="geometry" />
        </mxCell>
        <mxCell id="D8vA_F0jj49hH-3VTIe_-35" style="edgeStyle=orthogonalEdgeStyle;rounded=0;orthogonalLoop=1;jettySize=auto;html=1;entryX=0.5;entryY=0;entryDx=0;entryDy=0;" edge="1" parent="WIyWlLk6GJQsqaUBKTNV-1" source="D8vA_F0jj49hH-3VTIe_-5" target="D8vA_F0jj49hH-3VTIe_-11">
          <mxGeometry relative="1" as="geometry" />
        </mxCell>
        <mxCell id="D8vA_F0jj49hH-3VTIe_-5" value="Создание массива из N элементов" style="rounded=0;whiteSpace=wrap;html=1;" vertex="1" parent="WIyWlLk6GJQsqaUBKTNV-1">
          <mxGeometry x="282.5" y="160" width="120" height="60" as="geometry" />
        </mxCell>
        <mxCell id="D8vA_F0jj49hH-3VTIe_-29" value="" style="edgeStyle=orthogonalEdgeStyle;rounded=0;orthogonalLoop=1;jettySize=auto;html=1;" edge="1" parent="WIyWlLk6GJQsqaUBKTNV-1" source="D8vA_F0jj49hH-3VTIe_-11" target="D8vA_F0jj49hH-3VTIe_-16">
          <mxGeometry relative="1" as="geometry" />
        </mxCell>
        <mxCell id="D8vA_F0jj49hH-3VTIe_-11" value="Заполнение массива случайными значениями" style="rounded=0;whiteSpace=wrap;html=1;" vertex="1" parent="WIyWlLk6GJQsqaUBKTNV-1">
          <mxGeometry x="282.5" y="240" width="120" height="60" as="geometry" />
        </mxCell>
        <mxCell id="D8vA_F0jj49hH-3VTIe_-13" value="For,&lt;br&gt;i&amp;lt;N-1" style="shape=loopLimit;whiteSpace=wrap;html=1;" vertex="1" parent="WIyWlLk6GJQsqaUBKTNV-1">
          <mxGeometry x="257.5" y="400" width="170" height="80" as="geometry" />
        </mxCell>
        <mxCell id="D8vA_F0jj49hH-3VTIe_-37" style="edgeStyle=orthogonalEdgeStyle;rounded=0;orthogonalLoop=1;jettySize=auto;html=1;" edge="1" parent="WIyWlLk6GJQsqaUBKTNV-1" source="D8vA_F0jj49hH-3VTIe_-15">
          <mxGeometry relative="1" as="geometry">
            <mxPoint x="342.5" y="1129.9999999999998" as="targetPoint" />
          </mxGeometry>
        </mxCell>
        <mxCell id="D8vA_F0jj49hH-3VTIe_-15" value="For&lt;br&gt;" style="shape=loopLimit;whiteSpace=wrap;html=1;direction=west;" vertex="1" parent="WIyWlLk6GJQsqaUBKTNV-1">
          <mxGeometry x="257.5" y="1000" width="170" height="80" as="geometry" />
        </mxCell>
        <mxCell id="D8vA_F0jj49hH-3VTIe_-28" style="edgeStyle=orthogonalEdgeStyle;rounded=0;orthogonalLoop=1;jettySize=auto;html=1;exitX=0.5;exitY=1;exitDx=0;exitDy=0;" edge="1" parent="WIyWlLk6GJQsqaUBKTNV-1" source="D8vA_F0jj49hH-3VTIe_-16" target="D8vA_F0jj49hH-3VTIe_-13">
          <mxGeometry relative="1" as="geometry" />
        </mxCell>
        <mxCell id="D8vA_F0jj49hH-3VTIe_-16" value="i = 0" style="rounded=0;whiteSpace=wrap;html=1;" vertex="1" parent="WIyWlLk6GJQsqaUBKTNV-1">
          <mxGeometry x="282.5" y="320" width="120" height="60" as="geometry" />
        </mxCell>
        <mxCell id="D8vA_F0jj49hH-3VTIe_-27" style="edgeStyle=orthogonalEdgeStyle;rounded=0;orthogonalLoop=1;jettySize=auto;html=1;" edge="1" parent="WIyWlLk6GJQsqaUBKTNV-1" source="D8vA_F0jj49hH-3VTIe_-17" target="D8vA_F0jj49hH-3VTIe_-18">
          <mxGeometry relative="1" as="geometry" />
        </mxCell>
        <mxCell id="D8vA_F0jj49hH-3VTIe_-17" value="j = 0" style="rounded=0;whiteSpace=wrap;html=1;" vertex="1" parent="WIyWlLk6GJQsqaUBKTNV-1">
          <mxGeometry x="282.5" y="490" width="120" height="60" as="geometry" />
        </mxCell>
        <mxCell id="D8vA_F0jj49hH-3VTIe_-26" style="edgeStyle=orthogonalEdgeStyle;rounded=0;orthogonalLoop=1;jettySize=auto;html=1;entryX=0.5;entryY=0;entryDx=0;entryDy=0;" edge="1" parent="WIyWlLk6GJQsqaUBKTNV-1" source="D8vA_F0jj49hH-3VTIe_-18" target="D8vA_F0jj49hH-3VTIe_-21">
          <mxGeometry relative="1" as="geometry" />
        </mxCell>
        <mxCell id="D8vA_F0jj49hH-3VTIe_-18" value="For,&lt;br&gt;j&amp;lt;N-1" style="shape=loopLimit;whiteSpace=wrap;html=1;" vertex="1" parent="WIyWlLk6GJQsqaUBKTNV-1">
          <mxGeometry x="290" y="580" width="105" height="60" as="geometry" />
        </mxCell>
        <mxCell id="D8vA_F0jj49hH-3VTIe_-36" style="edgeStyle=orthogonalEdgeStyle;rounded=0;orthogonalLoop=1;jettySize=auto;html=1;" edge="1" parent="WIyWlLk6GJQsqaUBKTNV-1" source="D8vA_F0jj49hH-3VTIe_-19" target="D8vA_F0jj49hH-3VTIe_-15">
          <mxGeometry relative="1" as="geometry" />
        </mxCell>
        <mxCell id="D8vA_F0jj49hH-3VTIe_-19" value="For" style="shape=loopLimit;whiteSpace=wrap;html=1;direction=west;" vertex="1" parent="WIyWlLk6GJQsqaUBKTNV-1">
          <mxGeometry x="290" y="880" width="105" height="60" as="geometry" />
        </mxCell>
        <mxCell id="D8vA_F0jj49hH-3VTIe_-22" style="edgeStyle=orthogonalEdgeStyle;rounded=0;orthogonalLoop=1;jettySize=auto;html=1;entryX=0.5;entryY=1;entryDx=0;entryDy=0;" edge="1" parent="WIyWlLk6GJQsqaUBKTNV-1" source="D8vA_F0jj49hH-3VTIe_-21" target="D8vA_F0jj49hH-3VTIe_-19">
          <mxGeometry relative="1" as="geometry" />
        </mxCell>
        <mxCell id="D8vA_F0jj49hH-3VTIe_-23" style="edgeStyle=orthogonalEdgeStyle;rounded=0;orthogonalLoop=1;jettySize=auto;html=1;" edge="1" parent="WIyWlLk6GJQsqaUBKTNV-1" source="D8vA_F0jj49hH-3VTIe_-21">
          <mxGeometry relative="1" as="geometry">
            <mxPoint x="600" y="735" as="targetPoint" />
          </mxGeometry>
        </mxCell>
        <mxCell id="D8vA_F0jj49hH-3VTIe_-39" value="Да&lt;br&gt;" style="edgeLabel;html=1;align=center;verticalAlign=middle;resizable=0;points=[];" vertex="1" connectable="0" parent="D8vA_F0jj49hH-3VTIe_-23">
          <mxGeometry x="-0.1814" y="-1" relative="1" as="geometry">
            <mxPoint x="-31" y="14" as="offset" />
          </mxGeometry>
        </mxCell>
        <mxCell id="D8vA_F0jj49hH-3VTIe_-21" value="Значение массива c индексом j больше значения массива с индексом j+1" style="rhombus;whiteSpace=wrap;html=1;" vertex="1" parent="WIyWlLk6GJQsqaUBKTNV-1">
          <mxGeometry x="202.5" y="680" width="280" height="110" as="geometry" />
        </mxCell>
        <mxCell id="D8vA_F0jj49hH-3VTIe_-25" style="edgeStyle=orthogonalEdgeStyle;rounded=0;orthogonalLoop=1;jettySize=auto;html=1;entryX=0;entryY=0.5;entryDx=0;entryDy=0;" edge="1" parent="WIyWlLk6GJQsqaUBKTNV-1" source="D8vA_F0jj49hH-3VTIe_-24" target="D8vA_F0jj49hH-3VTIe_-19">
          <mxGeometry relative="1" as="geometry">
            <mxPoint x="660" y="920" as="targetPoint" />
            <Array as="points">
              <mxPoint x="660" y="910" />
            </Array>
          </mxGeometry>
        </mxCell>
        <mxCell id="D8vA_F0jj49hH-3VTIe_-24" value="Поменять элементы местами" style="rounded=0;whiteSpace=wrap;html=1;" vertex="1" parent="WIyWlLk6GJQsqaUBKTNV-1">
          <mxGeometry x="600" y="705" width="120" height="60" as="geometry" />
        </mxCell>
        <mxCell id="D8vA_F0jj49hH-3VTIe_-38" value="&lt;font style=&quot;font-size: 16px;&quot;&gt;Конец&lt;/font&gt;" style="rounded=1;whiteSpace=wrap;html=1;" vertex="1" parent="WIyWlLk6GJQsqaUBKTNV-1">
          <mxGeometry x="275" y="1130" width="135" height="20" as="geometry" />
        </mxCell>
        <mxCell id="D8vA_F0jj49hH-3VTIe_-40" value="Нет" style="edgeLabel;html=1;align=center;verticalAlign=middle;resizable=0;points=[];" vertex="1" connectable="0" parent="WIyWlLk6GJQsqaUBKTNV-1">
          <mxGeometry x="459.99523809523805" y="760" as="geometry">
            <mxPoint x="-142" y="48" as="offset" />
          </mxGeometry>
        </mxCell>
      </root>
    </mxGraphModel>
  </diagram>
</mxfile>
